<?xml version="1.0" standalone="no"?>
<!DOCTYPE svg PUBLIC "-//W3C//DTD SVG 20010904//EN"
 "http://www.w3.org/TR/2001/REC-SVG-20010904/DTD/svg10.dtd">
<svg version="1.0" xmlns="http://www.w3.org/2000/svg"
 width="1280.000000pt" height="1276.000000pt" viewBox="0 0 1280.000000 1276.000000"
 preserveAspectRatio="xMidYMid meet">
<metadata>
Created by potrace 1.15, written by Peter Selinger 2001-2017
</metadata>
<g transform="translate(0.000000,1276.000000) "
fill="#000000" stroke="none">
<path d="M5975 12749 c-86 -6 -144 -14 -151 -22 -6 -6 -41 -111 -77 -232 -37
-121 -107 -355 -157 -520 -50 -165 -123 -406 -162 -536 l-71 -237 -188 -46
c-213 -52 -475 -135 -658 -208 -68 -27 -130 -47 -137 -44 -7 3 -301 221 -653
485 -353 265 -645 481 -649 481 -13 0 -257 -149 -392 -240 -198 -132 -359
-254 -578 -436 l-25 -21 271 -746 c150 -411 272 -752 272 -758 0 -6 -40 -56
-88 -112 -175 -202 -337 -420 -457 -615 -32 -52 -64 -96 -72 -99 -8 -3 -366 4
-796 16 -430 12 -794 21 -808 21 -23 0 -30 -9 -56 -67 -61 -137 -142 -353
-202 -538 -61 -186 -145 -494 -138 -502 2 -2 303 -204 668 -448 562 -377 665
-450 670 -473 3 -15 1 -72 -4 -127 -8 -99 -2 -525 11 -702 l7 -92 -669 -448
c-367 -246 -672 -450 -677 -453 -9 -6 23 -147 72 -320 71 -249 180 -554 284
-794 l16 -39 137 6 c75 4 440 14 810 24 l673 17 25 -29 c13 -17 68 -95 120
-174 113 -169 222 -314 350 -467 l93 -111 -275 -752 c-151 -414 -274 -757
-272 -761 5 -14 213 -185 361 -296 225 -170 606 -418 631 -412 7 2 299 219
649 482 l637 479 47 -15 c27 -9 84 -30 128 -48 183 -74 392 -141 619 -200 81
-21 149 -40 151 -42 3 -3 222 -724 386 -1273 38 -126 73 -239 78 -251 8 -18
24 -22 137 -33 314 -30 1078 -22 1110 12 6 7 41 111 77 232 37 121 107 355
157 520 50 165 123 406 162 536 l71 237 188 46 c213 52 475 135 658 208 68 27
130 47 137 44 7 -3 301 -221 653 -485 353 -265 644 -481 649 -481 11 0 250
145 362 220 206 137 422 299 608 456 l25 21 -271 746 c-150 411 -272 752 -272
758 0 6 40 56 88 112 175 202 337 420 457 615 32 52 64 96 72 99 8 3 366 -4
796 -16 430 -12 794 -21 808 -21 23 0 30 9 56 68 61 136 142 352 202 537 61
186 145 494 138 502 -2 2 -303 204 -668 448 -562 377 -665 450 -670 473 -3 15
-1 72 4 127 8 99 2 527 -11 702 l-7 92 668 448 c368 246 673 450 678 453 9 6
-22 146 -72 320 -71 249 -180 554 -284 794 l-17 39 -141 -6 c-78 -4 -443 -14
-810 -24 l-668 -17 -25 29 c-13 17 -68 95 -120 174 -113 169 -222 314 -350
467 l-93 111 275 752 c151 414 274 757 272 761 -5 14 -213 185 -361 296 -225
170 -606 418 -631 412 -7 -2 -299 -219 -649 -482 l-637 -479 -47 15 c-27 9
-84 30 -128 48 -183 74 -392 141 -619 200 -81 21 -149 40 -151 42 -3 3 -222
724 -386 1273 -38 127 -73 239 -78 251 -8 18 -24 22 -137 33 -164 16 -775 22
-959 10z m2253 -2919 c73 -39 115 -83 151 -160 22 -46 26 -69 26 -140 0 -73
-4 -93 -28 -142 -32 -65 -95 -125 -165 -159 -70 -34 -198 -38 -274 -9 -75 28
-150 96 -185 168 -24 50 -28 69 -28 147 0 75 4 98 24 139 32 64 73 111 128
143 77 45 112 54 203 50 74 -3 93 -7 148 -37z m-1584 -1425 c397 -47 740 -182
1056 -418 187 -139 418 -395 529 -585 177 -306 264 -594 291 -969 10 -128 9
-170 -5 -270 -45 -333 -152 -618 -334 -890 -437 -654 -1225 -1012 -2023 -918
-505 59 -923 259 -1274 609 -215 216 -351 422 -464 705 -78 196 -122 403 -140
658 -10 128 -9 170 5 270 33 241 90 435 190 639 313 642 925 1076 1645 1168
145 19 370 19 524 1z m-3350 -134 c182 -89 246 -300 143 -472 -62 -103 -173
-163 -302 -162 -193 2 -335 144 -337 338 -3 248 267 409 496 296z m6489 -3167
c131 -46 218 -173 219 -321 1 -62 -4 -82 -31 -137 -37 -75 -92 -128 -170 -164
-81 -38 -202 -38 -282 -1 -79 37 -133 90 -171 167 -29 58 -33 77 -33 143 0 65
5 85 33 142 79 159 263 232 435 171z m-4919 -1565 c73 -27 148 -96 183 -167
24 -50 28 -69 28 -147 0 -73 -4 -99 -23 -136 -34 -70 -84 -122 -154 -160 -59
-32 -69 -34 -158 -34 -81 0 -103 4 -150 26 -79 37 -125 81 -161 154 -92 188
-9 395 189 467 67 24 177 23 246 -3z"/>
</g>
</svg>
